# xmcd
#
# Track frame offsets: 
#        150
#        34367
#        81939
#        142947
#        183448
#        211719
#        249156
#        270336
#        296685
#        317153
#
# Disc length: 4718 seconds
#
# Revision: 1
# Processed by: cddbd v1.5.2PL0 Copyright (c) Steve Scherf et al.
# Submitted via: ExactAudioCopy v1.1
#
DISCID=88126c0a
DTITLE=Various Artist - The Legacy Of Disco - Disc 2
DYEAR=2016
DGENRE=Disco
TTITLE0=Phyllis Hyman - You Know How To Love Me
TTITLE1=Eddie Kendricks - Ain't No Smoke Without Fire (DJ Reverend P E
TTITLE1=dit)
TTITLE2=Harold Melvin and The Blue Notes* - Bad Luck (Original Mike Maur
TTITLE2=ro Extended Remix)
TTITLE3=Melba Moore - Standing Right Here (Tom Moulton Remix)
TTITLE4=Harvey Mason - Groovin' You (12" Version)
TTITLE5=The Three Degrees - Dirty Ol' Man (Tom Moulton's 12" Extended 
TTITLE5=Remix)
TTITLE6=Teddy Pendergrass - Do Me
TTITLE7=Norman Connors - Once I've Been There
TTITLE8=Esther Phillips - What A Diff'rence A Day Makes
TTITLE9=Jackie Moore - This Time Baby (Tom Moulton Mix)
EXTD=
EXTT0=
EXTT1=
EXTT2=
EXTT3=
EXTT4=
EXTT5=
EXTT6=
EXTT7=
EXTT8=
EXTT9=
PLAYORDER=
